# xmcd
#
# Track frame offsets: 
#        150
#        35518
#        57121
#        78283
#        111793
#        134752
#        156968
#        197811
#
# Disc length: 2972 seconds
#
# Revision: 0
# Processed by: cddbd v1.5.2PL0 Copyright (c) Steve Scherf et al.
# Submitted via: ExactAudioCopy v1.0b3
#
DISCID=6a0b9a08
DTITLE=Erich Boboš Procházka - Diversion
DYEAR=2012
DGENRE=Blues
TTITLE0=Friday
TTITLE1=Talk To Your Daughter
TTITLE2=Cocaine
TTITLE3=Johnny B.Goode
TTITLE4=Me And The Devil Blues
TTITLE5=Who's Been Talking
TTITLE6=Smokestack Lightning
TTITLE7=Hunter From Turuchan
EXTD=
EXTT0=
EXTT1=
EXTT2=
EXTT3=
EXTT4=
EXTT5=
EXTT6=
EXTT7=
PLAYORDER=
